<svg class="icon" style="width: 1.28125em;height: 1em;vertical-align: middle;fill: currentColor;overflow: hidden;" viewBox="0 0 1312 1024" version="1.1" xmlns="http://www.w3.org/2000/svg" p-id="34887"><path d="M272.743044 115.696839c-73.893425 0-134.021966 60.125157-134.021965 134.01816v366.664498c0 73.893425 60.128541 134.021966 134.021965 134.021966h492.931558c73.893425 0 134.021543-60.128541 134.021542-134.021966V249.714999c0-73.893425-60.128118-134.018159-134.021542-134.01816H272.743044z m0 42.276651h492.931558c51.195829 0 91.745315 40.549485 91.745314 91.741932v366.664075c0 51.196252-40.549485 91.74616-91.745314 91.74616H272.743044c-51.195829 0-91.745315-40.549908-91.745314-91.74616V249.714999c0-51.192023 40.549485-91.741931 91.745314-91.741932z" p-id="34888"></path></svg>