<svg class="icon" style="width: 1em;height: 1em;vertical-align: middle;fill: currentColor;overflow: hidden;" viewBox="0 0 1024 1024" version="1.1" xmlns="http://www.w3.org/2000/svg" p-id="1135"><path d="M512 64c247.424 0 448 200.576 448 448S759.424 960 512 960 64 759.424 64 512 264.576 64 512 64z m0 64c-212.077 0-384 171.923-384 384s171.923 384 384 384 384-171.923 384-384-171.923-384-384-384z m104 248c17.673 0 32 14.327 32 32v208c0 17.673-14.327 32-32 32H408c-17.673 0-32-14.327-32-32V408c0-17.673 14.327-32 32-32h208z" p-id="1136"></path></svg>