<svg class="icon" style="width: 1em;height: 1em;vertical-align: middle;fill: currentColor;overflow: hidden;" viewBox="0 0 1024 1024" version="1.1" xmlns="http://www.w3.org/2000/svg" p-id="14087"><path d="M512 0c282.752 0 512 229.248 512 512s-229.248 512-512 512S0 794.752 0 512 229.248 0 512 0z m0 85.333333C276.352 85.333333 85.333333 276.352 85.333333 512s191.018667 426.666667 426.666667 426.666667 426.666667-191.018667 426.666667-426.666667S747.648 85.333333 512 85.333333z m85.333333 256a85.333333 85.333333 0 0 1 85.333334 85.333334v170.666666a85.333333 85.333333 0 0 1-85.333334 85.333334h-170.666666a85.333333 85.333333 0 0 1-85.333334-85.333334v-170.666666a85.333333 85.333333 0 0 1 85.333334-85.333334h170.666666z" fill="green" p-id="14088"></path></svg>