<svg class="icon" style="width: 1em;height: 1em;vertical-align: middle;fill: currentColor;overflow: hidden;" viewBox="0 0 1024 1024" version="1.1" xmlns="http://www.w3.org/2000/svg" p-id="6186"><path d="M469.333333 162.133333h85.333334v469.333334c0 12.8-8.533333 21.333333-21.333334 21.333333h-42.666666c-12.8 0-21.333333-8.533333-21.333334-21.333333v-469.333334z" fill="#1890FF" p-id="6187"></path><path d="M315.733333 392.533333L285.866667 362.666667c-8.533333-8.533333-8.533333-21.333333 0-29.866667l211.2-211.2c8.533333-8.533333 21.333333-8.533333 29.866666 0l44.8 44.8-226.133333 226.133333c-8.533333 8.533333-21.333333 8.533333-29.866667 0z" fill="#1890FF" p-id="6188"></path><path d="M452.266667 166.4l44.8-44.8c8.533333-8.533333 21.333333-8.533333 29.866666 0l211.2 211.2c8.533333 8.533333 8.533333 21.333333 0 29.866667l-29.866666 29.866666c-8.533333 8.533333-21.333333 8.533333-29.866667 0L452.266667 166.4zM896 503.466667h-42.666667c-12.8 0-21.333333 8.533333-21.333333 21.333333v277.333333c0 12.8-8.533333 21.333333-21.333333 21.333334H213.333333c-12.8 0-21.333333-8.533333-21.333333-21.333334v-277.333333c0-12.8-8.533333-21.333333-21.333333-21.333333H128c-12.8 0-21.333333 8.533333-21.333333 21.333333v362.666667c0 12.8 8.533333 21.333333 21.333333 21.333333h768c12.8 0 21.333333-8.533333 21.333333-21.333333v-362.666667c0-12.8-8.533333-21.333333-21.333333-21.333333z" fill="#1890FF" p-id="6189"></path><path d="M277.333333 588.8H149.333333v-85.333333h128c12.8 0 21.333333 8.533333 21.333334 21.333333v42.666667c0 10.666667-8.533333 21.333333-21.333334 21.333333zM874.666667 588.8h-128c-12.8 0-21.333333-8.533333-21.333334-21.333333v-42.666667c0-12.8 8.533333-21.333333 21.333334-21.333333h128v85.333333z" fill="#1890FF" p-id="6190"></path></svg>