<svg class="icon" style="width: 1em;height: 1em;vertical-align: middle;fill: currentColor;overflow: hidden;" viewBox="0 0 1024 1024" version="1.1" xmlns="http://www.w3.org/2000/svg" p-id="20608"><path d="M986.112 446.7712a38.4 38.4 0 0 0 38.4-38.4V144.128a140.9536 140.9536 0 0 0-140.8-140.8L140.7488 3.6864a140.9536 140.9536 0 0 0-140.8 140.8v735.3856a140.9536 140.9536 0 0 0 140.8 140.8l742.9632-0.4096a140.9536 140.9536 0 0 0 140.8-140.8V588.288c0-3.6864-1.1264-7.0144-2.0992-10.3936a37.8368 37.8368 0 0 0-11.9808-29.5936L785.8176 342.6304c-26.0096-23.8592-65.8432-24.576-96.2048 1.9968l-163.1232 182.8864-146.2272-84.9408a70.8608 70.8608 0 0 0-53.3504-13.6192 70.3488 70.3488 0 0 0-44.544 26.4704L179.6096 563.8656a38.4 38.4 0 0 0 55.7056 52.8384l103.8336-109.568 145.9712 84.8384c25.9584 20.0192 62.976 18.9952 91.5968-5.888l162.3552-182.1184 208.5888 191.0272v284.4672c0 35.2768-28.7232 64-64 64l-742.912 0.4096c-35.2768 0-64-28.7232-64-64V144.4864c0-35.2768 28.7232-64 64-64l742.9632-0.4096c35.2768 0 64 28.7232 64 64v264.2944c0 21.1968 17.2032 38.4 38.4 38.4z" fill="#1890FF" p-id="20609"></path><path d="M264.4992 248.4224m-49.664 0a49.664 49.664 0 1 0 99.328 0 49.664 49.664 0 1 0-99.328 0Z" fill="#1890FF" p-id="20610"></path></svg>