<svg class="icon" fill="#fff" style="width: 1em;height: 1em;vertical-align: middle;fill: #fff;overflow: hidden;" viewBox="0 0 1024 1024" version="1.1" xmlns="http://www.w3.org/2000/svg" p-id="19269"><path d="M400.43759 732.273456a71.33239 71.33239 0 0 0 34.157473 8.810938 75.556813 75.556813 0 0 0 41.157944-12.069778l219.790665-144.837341a85.574729 85.574729 0 0 0 38.502593-72.418671 83.402169 83.402169 0 0 0-37.295615-70.608203l-221.842527-144.837341a72.41867 72.41867 0 0 0-74.591231-3.741631 84.488449 84.488449 0 0 0-41.761433 75.436115v289.674681a84.488449 84.488449 0 0 0 41.882131 74.591231z m42.002829-82.315889V374.163131l207.600188 135.664309v0.965582a13.156058 13.156058 0 0 1 0 2.293258z" fill="green" p-id="19270"></path><path d="M149.989688 874.093352a509.948138 509.948138 0 1 0-109.714286-162.700613 513.206978 513.206978 0 0 0 109.714286 162.700613zM84.571489 512a428.11504 428.11504 0 1 1 427.511551 428.11504A428.597831 428.597831 0 0 1 84.571489 512z" fill="green" p-id="19271"></path></svg>